<svg xmlns="http://www.w3.org/2000/svg" width="1132" height="1080" viewBox="0 0 1132 1080" version="1.1"><path d="M 229 526.454 L 229 814 287 814 L 345 814 345 682.849 L 345 551.698 354.750 552.331 C 378.358 553.865, 385.708 559.913, 387.971 579.665 C 388.596 585.113, 388.987 631.717, 388.992 701.250 L 389 814 444.836 814 L 500.672 814 501.335 753.250 C 502.294 665.397, 502.123 582.642, 500.965 574.500 C 496.366 542.155, 482.971 523.449, 459.043 515.960 L 453.586 514.252 461.481 510.604 C 482.694 500.803, 495.059 485.761, 502.450 460.766 L 504.894 452.500 504.949 558.500 C 505.015 683.027, 505.601 695.039, 513.060 724.572 C 525.504 773.846, 552.735 803.168, 596 813.884 C 642.690 825.447, 703.827 819.370, 736.043 799.963 C 765.576 782.171, 783.266 749.823, 790.435 700.500 C 792.172 688.548, 793.953 656.783, 793.982 637.250 L 794 625 735.595 625 L 677.190 625 676.755 665.250 C 676.275 709.791, 676.011 711.852, 669.710 720.206 C 665.056 726.376, 659.298 729, 650.410 729 C 634.969 729, 628.925 723.247, 624.734 704.561 C 622.852 696.170, 622.670 691.233, 622.267 637.750 L 621.833 580 706.800 580 L 791.767 580 792.353 573.750 C 793.574 560.736, 794.150 462.387, 793.105 445.500 C 791.432 418.479, 787.664 401.508, 779.509 384.266 C 757.875 338.522, 713.646 317.233, 644.504 319.285 C 621.645 319.964, 606.617 322.364, 589.569 328.061 C 568.749 335.018, 553.995 344.163, 539.384 359.166 C 527.093 371.789, 518.442 386.337, 513.023 403.500 C 509.509 414.627, 509.165 414.992, 509.719 407 C 510.406 397.083, 508.344 354.787, 506.459 340.121 C 501.762 303.597, 493.889 282.696, 478.679 266.377 C 466.759 253.588, 453.505 246.401, 433.500 241.877 C 423.551 239.627, 423 239.614, 326.250 239.262 L 229 238.908 229 526.454 M 346 398.362 L 346 452 361.032 452 C 381.018 452, 385.278 450.237, 390.611 439.759 C 395.583 429.992, 396.456 423.555, 396.478 396.500 C 396.503 365.569, 394.874 356.853, 387.847 350.317 C 383.804 346.555, 379.988 345.785, 362.750 345.246 L 346 344.723 346 398.362 M 640.524 408.063 C 634.672 410.982, 630.506 415.482, 627.544 422.082 C 622.360 433.632, 621.737 439.985, 621.613 482.500 L 621.500 521.500 649.326 521.766 L 677.152 522.032 676.761 479.766 C 676.396 440.455, 676.220 436.964, 674.246 429.831 C 673.078 425.613, 671.235 420.438, 670.149 418.331 C 667.744 413.662, 662.487 408.495, 658.685 407.061 C 654.119 405.340, 644.972 405.844, 640.524 408.063 M 794 765.500 L 794 814 852.500 814 L 911 814 911 765.500 L 911 717 852.500 717 L 794 717 794 765.500" stroke="none" fill="#d3e3d3" fill-rule="evenodd"/><path d="M 65.925 0.976 C 36.774 4.756, 13.747 24.365, 4.834 53 L 2.500 60.500 2.500 540 L 2.500 1019.500 4.844 1026.965 C 13.137 1053.374, 32.446 1071.503, 58.898 1077.715 C 66.142 1079.416, 90.037 1079.500, 566 1079.500 C 1041.963 1079.500, 1065.858 1079.416, 1073.102 1077.715 C 1099.226 1071.580, 1119.817 1052.084, 1127.193 1026.500 L 1129.500 1018.500 1129.500 540 C 1129.500 80.049, 1129.429 61.248, 1127.677 55 C 1120.495 29.389, 1102.858 11.219, 1077.500 3.308 L 1068.500 0.500 570 0.377 C 295.825 0.309, 68.991 0.579, 65.925 0.976 M 229 526.454 L 229 814 287 814 L 345 814 345 682.849 L 345 551.698 354.750 552.331 C 378.358 553.865, 385.708 559.913, 387.971 579.665 C 388.596 585.113, 388.987 631.717, 388.992 701.250 L 389 814 444.836 814 L 500.672 814 501.335 753.250 C 502.294 665.397, 502.123 582.642, 500.965 574.500 C 496.366 542.155, 482.971 523.449, 459.043 515.960 L 453.586 514.252 461.481 510.604 C 482.694 500.803, 495.059 485.761, 502.450 460.766 L 504.894 452.500 504.949 558.500 C 505.015 683.027, 505.601 695.039, 513.060 724.572 C 525.504 773.846, 552.735 803.168, 596 813.884 C 642.690 825.447, 703.827 819.370, 736.043 799.963 C 765.576 782.171, 783.266 749.823, 790.435 700.500 C 792.172 688.548, 793.953 656.783, 793.982 637.250 L 794 625 735.595 625 L 677.190 625 676.755 665.250 C 676.275 709.791, 676.011 711.852, 669.710 720.206 C 665.056 726.376, 659.298 729, 650.410 729 C 634.969 729, 628.925 723.247, 624.734 704.561 C 622.852 696.170, 622.670 691.233, 622.267 637.750 L 621.833 580 706.800 580 L 791.767 580 792.353 573.750 C 793.574 560.736, 794.150 462.387, 793.105 445.500 C 791.432 418.479, 787.664 401.508, 779.509 384.266 C 757.875 338.522, 713.646 317.233, 644.504 319.285 C 621.645 319.964, 606.617 322.364, 589.569 328.061 C 568.749 335.018, 553.995 344.163, 539.384 359.166 C 527.093 371.789, 518.442 386.337, 513.023 403.500 C 509.509 414.627, 509.165 414.992, 509.719 407 C 510.406 397.083, 508.344 354.787, 506.459 340.121 C 501.762 303.597, 493.889 282.696, 478.679 266.377 C 466.759 253.588, 453.505 246.401, 433.500 241.877 C 423.551 239.627, 423 239.614, 326.250 239.262 L 229 238.908 229 526.454 M 346 398.362 L 346 452 361.032 452 C 381.018 452, 385.278 450.237, 390.611 439.759 C 395.583 429.992, 396.456 423.555, 396.478 396.500 C 396.503 365.569, 394.874 356.853, 387.847 350.317 C 383.804 346.555, 379.988 345.785, 362.750 345.246 L 346 344.723 346 398.362 M 640.524 408.063 C 634.672 410.982, 630.506 415.482, 627.544 422.082 C 622.360 433.632, 621.737 439.985, 621.613 482.500 L 621.500 521.500 649.326 521.766 L 677.152 522.032 676.761 479.766 C 676.396 440.455, 676.220 436.964, 674.246 429.831 C 673.078 425.613, 671.235 420.438, 670.149 418.331 C 667.744 413.662, 662.487 408.495, 658.685 407.061 C 654.119 405.340, 644.972 405.844, 640.524 408.063 M 794 765.500 L 794 814 852.500 814 L 911 814 911 765.500 L 911 717 852.500 717 L 794 717 794 765.500" stroke="none" fill="#132842" fill-rule="evenodd"/></svg>